<svg xmlns="http://www.w3.org/2000/svg" viewBox="0 0 64 64"><path fill="#1d9bf0" d="M11.837 20.826 9.58 18.568a2.199 2.199 0 0 1 0-3.11l5.89-5.89a2.252 2.252 0 0 1 3.11 0l2.281 2.283a24.675 24.675 0 0 0-5.107 3.892 24.932 24.932 0 0 0-3.916 5.083ZM31.86 40.655l10.129 1.726a.352.352 0 0 0 .306-.096.339.339 0 0 0 .097-.306l-1.767-10.363-17.577-17.578a21.864 21.864 0 0 0-9.009 8.99L29.642 38.63l7.062-7.062a1.5 1.5 0 0 1 2.121 2.12Zm16.833-22.791A21.8 21.8 0 0 0 26.01 12.76l17.073 17.073a1.496 1.496 0 0 1 .418.809l1.847 10.833a3.349 3.349 0 0 1-3.865 3.864l-10.832-1.847a1.496 1.496 0 0 1-.809-.418L12.76 25.991a21.786 21.786 0 1 0 35.933-8.127Z"/></svg>